<svg width="133" height="41" viewBox="0 0 133 41" fill="none" xmlns="http://www.w3.org/2000/svg">
<path fill-rule="evenodd" clip-rule="evenodd" d="M8.58632 18.2021H7.52404V18.7533H6.4616V19.3046H5.39931V19.8559H4.33688V20.4072H3.80566V20.9583H3.27459V21.5096H2.74338V22.6121H2.21216V23.7145H1.68094V24.2658H1.14987V27.022H0.618652V31.432H1.14987V33.6369H1.68094V35.2906H2.21216V35.8419H2.74338V36.9444H3.27459V37.4957H3.80566V38.0468H4.33688V38.5981H5.39931V39.1494H5.93054V39.7007H8.05526V40.2518H16.0229V39.7007H17.6166V39.1494H18.6789V32.5345H19.2101V31.9832H21.3348V30.8807H13.367V31.9832H15.4919V32.5345H16.0229V38.5981H9.11755V38.0468H8.05526V37.4957H7.52404V36.9444H6.99282V36.3931H6.4616V35.2906H5.93054V34.7395H5.39931V33.6369H4.8681V24.2658H5.39931V23.1632H5.93054V22.0608H6.4616V21.5096H6.99282V20.9583H7.52404V20.4072H8.05526V19.8559H8.58632V19.3046H9.64876V18.7533H13.8982V19.3046H14.9606V19.8559H15.4919V20.9583H16.0229V23.1632H15.4919V23.7145H14.9606V24.2658H14.4294V25.3682H14.9606V25.9195H17.6166V25.3682H18.1476V24.8171H18.6789V24.2658H19.2101V20.4072H18.6789V19.8559H18.1476V19.3046H17.6166V18.7533H16.5541V18.2021H15.4919V17.6509H8.58632V18.2021Z" fill="#F4F9F4"/>
<path fill-rule="evenodd" clip-rule="evenodd" d="M75.0209 38.6049V39.154H73.3961V40.2519H82.0618V39.154H80.4369V38.6049H79.8953V38.0559H79.3538V19.9387H83.1449V20.4877H83.6866V21.0366H84.2282V21.5857H84.7697V24.3307H85.3113V24.8798H86.9361V18.8406H68.5217V24.8798H70.1465V23.2326H70.6881V21.5857H71.2297V21.0366H71.7714V20.4877H72.313V19.9387H76.1041V38.0559H75.5625V38.6049H75.0209Z" fill="#F4F9F4"/>
<path fill-rule="evenodd" clip-rule="evenodd" d="M56.0646 38.043H55.523V28.1019H56.0646V27.5497H56.6063V26.9974H57.6895V26.4451H62.0223V26.9974H62.5639V27.5497H63.1054V38.5953H62.5639V39.1476H60.939V40.2521H68.5215V39.1476H66.8967V38.5953H66.3551V27.5497H65.8135V26.4451H65.2718V25.8928H64.7303V25.3405H63.6471V24.7883H58.7726V25.3405H57.6895V25.8928H57.1479V26.4451H56.6063V26.9974H55.523V24.7883H53.3566V25.3405H50.1071V26.4451H52.2735V26.9974H52.8151V38.5953H52.2735V39.1476H50.1071V40.2521H58.231V39.1476H56.6063V38.5953H56.0646V38.043Z" fill="#F4F9F4"/>
<path fill-rule="evenodd" clip-rule="evenodd" d="M42.0099 33.0724V32.5203H44.1473V35.8339H43.6129V36.9385H43.0785V37.4908H42.5442V38.043H42.0099V38.5953H38.2695V38.043H37.7351V34.7294H38.2695V34.1771H38.8038V33.6247H40.4068V33.0724H42.0099ZM37.7351 25.3405H36.6665V25.8928H36.1321V26.4451H35.5977V29.7589H36.1321V30.311H38.8038V29.2065H38.2695V28.6542H37.7351V26.9974H38.2695V26.4451H38.8038V25.8928H42.5442V26.4451H43.0785V26.9974H43.6129V28.1019H44.1473V31.968H38.8038V32.5203H36.6665V33.0724H35.5977V33.6247H35.0633V34.1771H34.5291V35.2815H33.9947V38.043H34.5291V38.5953H35.0633V39.1476H35.5977V39.6999H36.1321V40.2521H41.4756V39.6999H42.5442V39.1476H43.0785V38.5953H43.6129V38.043H44.1473V39.1476H44.6815V39.6999H45.2159V40.2521H48.9564V39.1476H47.3533V38.5953H46.819V28.1019H46.2847V26.4451H45.7503V25.8928H45.2159V25.3405H44.1473V24.7883H37.7351V25.3405Z" fill="#F4F9F4"/>
<path fill-rule="evenodd" clip-rule="evenodd" d="M129.254 30.311H128.723V30.8633H122.348V28.6542H122.879V27.5497H123.411V26.9974H123.942V26.4451H124.473V25.8928H128.191V26.4451H128.723V26.9974H129.254V28.1019H129.785V29.7589H129.254V30.311ZM123.942 25.3405H122.879V25.8928H121.817V26.4451H121.286V26.9974H120.755V27.5497H120.223V28.6542H119.692V29.7589H119.161V35.2815H119.692V36.9385H120.223V37.4908H120.755V38.043H121.286V38.5953H121.817V39.1476H122.348V39.6999H123.942V40.2521H129.254V39.6999H130.847V39.1476H131.378V38.5953H131.91V38.043H132.441V37.4908H132.972V36.3862H131.91V36.9385H131.378V37.4908H130.847V38.043H130.316V38.5953H125.004V38.043H124.473V37.4908H123.942V36.9385H123.411V36.3862H122.879V34.7294H122.348V31.968H131.91V31.4156H132.441V27.5497H131.91V26.9974H131.378V26.4451H130.847V25.8928H130.316V25.3405H129.254V24.7883H123.942V25.3405Z" fill="#F4F9F4"/>
<path fill-rule="evenodd" clip-rule="evenodd" d="M111.99 30.311H111.459V30.8633H105.084V28.6542H105.616V27.5497H106.147V26.9974H106.678V26.4451H107.209V25.8928H110.928V26.4451H111.459V26.9974H111.99V28.1019H112.521V29.7589H111.99V30.311ZM106.678 25.3405H105.616V25.8928H104.553V26.4451H104.022V26.9974H103.491V27.5497H102.96V28.6542H102.429V29.7589H101.897V35.2815H102.429V36.9385H102.96V37.4908H103.491V38.043H104.022V38.5953H104.553V39.1476H105.084V39.6999H106.678V40.2521H111.99V39.6999H113.584V39.1476H114.115V38.5953H114.646V38.043H115.177V37.4908H115.708V36.3862H114.646V36.9385H114.115V37.4908H113.584V38.043H113.052V38.5953H107.74V38.043H107.209V37.4908H106.678V36.9385H106.147V36.3862H105.616V34.7294H105.084V31.968H114.646V31.4156H115.177V27.5497H114.646V26.9974H114.115V26.4451H113.584V25.8928H113.052V25.3405H111.99V24.7883H106.678V25.3405Z" fill="#F4F9F4"/>
<path fill-rule="evenodd" clip-rule="evenodd" d="M88.5184 25.3405V25.8928H87.4635V26.4451H88.5184V26.9974H89.046V27.5497H89.5735V38.5953H89.046V39.1476H86.936V40.2521H94.8485V39.1476H93.2659V38.5953H92.7385V38.043H92.211V28.6542H92.7385V28.1019H93.2659V27.5497H93.7934V26.9974H94.8485V26.4451H96.4309V26.9974H96.9584V28.6542H96.4309V29.7589H98.5408V29.2065H99.0684V28.6542H99.5959V26.4451H99.0684V25.3405H98.5408V24.7883H95.3758V25.3405H94.3209V25.8928H93.7934V26.4451H93.2659V26.9974H92.211V24.7883H89.5735V25.3405H88.5184Z" fill="#F4F9F4"/>
<path fill-rule="evenodd" clip-rule="evenodd" d="M25.2479 25.3405V25.8928H24.1738V26.4451H25.2479V26.9974H25.785V27.5497H26.3221V38.5953H25.785V39.1476H23.6367V40.2521H31.693V39.1476H30.0816V38.5953H29.5446V38.043H29.0075V24.7883H27.3963V25.3405H25.2479Z" fill="#F4F9F4"/>
<path fill-rule="evenodd" clip-rule="evenodd" d="M25.9385 16.9714H25.3631V17.4812H24.7876V19.0105H25.3631V19.5203H25.9385V20.0301H28.2402V19.5203H28.8157V19.0105H29.3912V17.4812H28.8157V16.9714H28.2402V16.4615H25.9385V16.9714Z" fill="#F4F9F4"/>
<path fill-rule="evenodd" clip-rule="evenodd" d="M78.0427 1.56415H77.5195V2.13063H76.9965V2.69708H76.4733V3.2634H75.9502V4.39633H75.427V8.92775H75.9502V10.6272H76.4733V11.1935H76.9965V11.7599H77.5195V12.3264H78.0427V12.8929H78.5658V12.3264H79.089V11.7599H79.612V11.1935H80.1352V10.0607H80.6583V8.92775H81.1815V5.52927H80.6583V3.82986H80.1352V3.2634H79.612V2.13063H79.089V1.56415H78.5658V0.997681H78.0427V1.56415Z" fill="#6AE977"/>
<path fill-rule="evenodd" clip-rule="evenodd" d="M68.5215 12.1H69.0586V13.7653H69.5956V14.8756H70.1327V15.4307H70.6698V15.9857H71.2069V16.5408H72.281V17.096H73.3552V17.6511H76.5778V13.7653H76.0407V12.6551H75.5035V12.1H74.9664V11.5449H74.4293V10.9897H73.8923V10.4348H73.3552V9.87961H71.744V9.32446H68.5215V12.1Z" fill="#6AE977"/>
<path fill-rule="evenodd" clip-rule="evenodd" d="M84.8643 9.87961H83.2531V10.4348H82.716V10.9897H82.179V11.5449H81.6419V12.1H81.1048V12.6551H80.5676V13.7653H80.0305V17.6511H83.2531V17.096H84.3273V16.5408H85.4014V15.9857H85.9385V15.4307H86.4756V14.8756H87.0126V13.7653H87.5497V12.1H88.0868V9.32446H84.8643V9.87961Z" fill="#6AE977"/>
</svg>
